<svg width="400" height="400" xmlns="http://www.w3.org/2000/svg">
 <!-- Created with Method Draw - http://github.com/duopixel/Method-Draw/ -->
 <g>
  <title>background</title>
  <rect fill="#daf2f2" id="canvas_background" height="402" width="402" y="-1" x="-1"/>
  <g display="none" overflow="visible" y="0" x="0" height="100%" width="100%" id="canvasGrid">
   <rect fill="url(#gridpattern)" stroke-width="0" y="0" x="0" height="100%" width="100%"/>
  </g>
 </g>
 <g>
  <title>Layer 1</title>
  <ellipse ry="30" rx="32" id="svg_2" cy="84" cx="77" stroke-width="1.5" stroke="#000" fill="#9ACEE6"/>
  <ellipse ry="30" rx="32" id="svg_3" cy="59" cx="299" stroke-width="1.5" stroke="#000" fill="#9ACEE6"/>
  <ellipse ry="30" rx="32" id="svg_4" cy="166" cx="278" stroke-width="1.5" stroke="#000" fill="#9ACEE6"/>
  <ellipse ry="30" rx="32" id="svg_5" cy="212" cx="82" stroke-width="1.5" stroke="#000" fill="#9ACEE6"/>
  <ellipse ry="30" rx="32" id="svg_6" cy="257" cx="357" stroke-width="1.5" stroke="#000" fill="#9ACEE6"/>
  <ellipse ry="30" rx="32" id="svg_7" cy="345" cx="118" stroke-width="1.5" stroke="#000" fill="#9ACEE6"/>
  <ellipse ry="30" rx="32" id="svg_8" cy="295" cx="210" stroke-width="1.5" stroke="#000" fill="#9ACEE6"/>
  <line stroke-linecap="null" stroke-linejoin="null" id="svg_9" y2="312" x2="183.5" y1="331" x1="147.5" fill-opacity="null" stroke-opacity="null" stroke-width="1.5" stroke="#000" fill="none"/>
  <line stroke-linecap="null" stroke-linejoin="null" id="svg_10" y2="114" x2="79.5" y1="181" x1="82.5" fill-opacity="null" stroke-opacity="null" stroke-width="1.5" stroke="#000" fill="none"/>
  <line stroke-linecap="null" stroke-linejoin="null" id="svg_11" y2="89" x2="293.5" y1="136" x1="282.5" fill-opacity="null" stroke-opacity="null" stroke-width="1.5" stroke="#000" fill="none"/>
  <line stroke="#000" stroke-linecap="null" stroke-linejoin="null" id="svg_12" y2="237.000002" x2="333.500001" y1="193" x1="294.5" fill-opacity="null" stroke-opacity="null" stroke-width="1.5" fill="none"/>
  <ellipse ry="30" rx="32" id="svg_13" cy="145" cx="169" stroke-width="1.5" stroke="#000" fill="#9ACEE6"/>
  <line stroke-linecap="null" stroke-linejoin="null" id="svg_15" y2="191" x2="106.5" y1="163" x1="143.5" fill-opacity="null" stroke-opacity="null" stroke-width="1.5" stroke="#000" fill="none"/>
  <line stroke="#000" stroke-linecap="null" stroke-linejoin="null" id="svg_16" y2="98" x2="105.5" y1="125" x1="145.5" fill-opacity="null" stroke-opacity="null" stroke-width="1.5" fill="none"/>
  <line stroke-linecap="null" stroke-linejoin="null" id="svg_17" y2="160" x2="246.5" y1="152" x1="199.5" fill-opacity="null" stroke-opacity="null" stroke-width="1.5" stroke="#000" fill="none"/>
 </g>
</svg>